<svg xmlns="http://www.w3.org/2000/svg" version="1.1" xmlns:xlink="http://www.w3.org/1999/xlink" xmlns:svgjs="http://svgjs.dev/svgjs" width="2000" height="1368" viewBox="0 0 2000 1368"><g transform="matrix(1,0,0,1,-0.4732706267913045,0.5538461538461661)"><svg viewBox="0 0 361 247" data-background-color="#fafafa" preserveAspectRatio="xMidYMid meet" height="1368" width="2000" xmlns="http://www.w3.org/2000/svg" xmlns:xlink="http://www.w3.org/1999/xlink"><g id="tight-bounds" transform="matrix(1,0,0,1,0.08542534813582847,-0.09999999999999432)"><svg viewBox="0 0 360.82914930372834 247.2" height="247.2" width="360.82914930372834"><g><svg viewBox="0 0 395.52 270.96631241867834" height="247.2" width="360.82914930372834"><g transform="matrix(1,0,0,1,0,171.65071770502198)"><svg viewBox="0 0 395.52 99.31559471365638" height="99.31559471365638" width="395.52"><g id="textblocktransform"><svg viewBox="0 0 395.52 99.31559471365638" height="99.31559471365638" width="395.52" id="textblock"><g><svg viewBox="0 0 395.52 99.31559471365638" height="99.31559471365638" width="395.52"><g transform="matrix(1,0,0,1,0,0)"><svg width="395.52" viewBox="2 -37.45 155.16 38.96" height="99.31559471365638" data-palette-color="url(#9d8494be-dbfa-4307-97f0-c7f59d16cb3d)"></svg></g></svg></g></svg></g></svg></g><g transform="matrix(1,0,0,1,147.3988815642628,0)"><svg viewBox="0 0 100.7222368714744 148.20468936740085" height="148.20468936740085" width="100.7222368714744"><g><svg xmlns="http://www.w3.org/2000/svg" xmlns:xlink="http://www.w3.org/1999/xlink" version="1.1" x="0" y="0" viewBox="6.484999999999999 2 19.029240197723595 28" enable-background="new 0 0 32 32" xml:space="preserve" height="148.20468936740085" width="100.7222368714744" class="icon-icon-0" data-fill-palette-color="accent" id="icon-0"></svg></g></svg></g><g></g></svg></g><defs></defs><mask id="2ed43082-7cf2-4ca2-bfe6-47ae36038f40"><g id="SvgjsG1241"><svg viewBox="0 0 360.82914930372834 247.2" height="247.2" width="360.82914930372834"><g><svg viewBox="0 0 395.52 270.96631241867834" height="247.2" width="360.82914930372834"><g transform="matrix(1,0,0,1,0,171.65071770502198)"><svg viewBox="0 0 395.52 99.31559471365638" height="99.31559471365638" width="395.52"><g id="SvgjsG1240"><svg viewBox="0 0 395.52 99.31559471365638" height="99.31559471365638" width="395.52" id="SvgjsSvg1239"><g><svg viewBox="0 0 395.52 99.31559471365638" height="99.31559471365638" width="395.52"><g transform="matrix(1,0,0,1,0,0)"><svg width="395.52" viewBox="2 -37.45 155.16 38.96" height="99.31559471365638" data-palette-color="url(#9d8494be-dbfa-4307-97f0-c7f59d16cb3d)"><path d="M17.04-35.11L17.04-35.11 19.87-35.69Q20.75-28.81 20.97-16.58 21.19-4.35 21.44-0.39L21.44-0.39Q21 1.12 19.73 1.12L19.73 1.12Q18.85 1.12 18.04 0.39 17.24-0.34 17.04-1.37L17.04-1.37Q17.09-3.13 17.09-7.23L17.09-7.23 17.09-16.85Q16.02-16.8 14.09-16.63 12.16-16.46 10.57-16.36 8.98-16.26 7.57-16.26L7.57-16.26Q6.3-16.26 5.71-16.31L5.71-16.31Q5.81-13.33 6.05-7.89 6.3-2.44 6.4-0.39L6.4-0.39Q5.96 1.12 4.69 1.12L4.69 1.12Q3.81 1.12 3 0.39 2.2-0.34 2-1.37L2-1.37Q2.15-5.57 2.27-17.68 2.39-29.79 2.73-35.69L2.73-35.69 4.93-35.21Q4.93-35.06 4.96-34.74 4.98-34.42 4.98-34.23L4.98-34.23Q5.62-22.22 5.71-19.19L5.71-19.19Q7.37-19.34 9.25-19.51 11.13-19.68 13.4-19.9 15.67-20.12 16.94-20.21L16.94-20.21Q16.99-20.21 16.99-20.7 16.99-21.19 17.02-24.66 17.04-28.13 17.04-35.11ZM44.19-36.23L44.19-36.23 47.07-35.99Q47.7-27 47.7-20.8L47.7-20.8Q47.7-16.31 47.46-10.55L47.46-10.55Q47.36-8.11 47.07-6.42 46.77-4.74 46.04-3.13 45.31-1.51 44.06-0.56 42.82 0.39 40.82 0.95 38.82 1.51 35.98 1.51L35.98 1.51Q33.93 1.51 32.37 1.15 30.81 0.78 29.76 0.2 28.71-0.39 27.98-1.34 27.24-2.29 26.83-3.32 26.41-4.35 26.19-5.76 25.97-7.18 25.88-8.45 25.78-9.72 25.68-11.43L25.68-11.43Q25.68-11.57 25.68-11.62L25.68-11.62Q25.44-17.58 25.44-21.73L25.44-21.73Q25.44-25.24 25.73-35.89L25.73-35.89 28.42-35.3Q28.51-30.81 28.95-22.49 29.39-14.16 29.54-10.64L29.54-10.64Q29.59-8.98 29.68-8.01 29.78-7.03 30.15-5.76 30.52-4.49 31.15-3.81 31.78-3.13 32.96-2.64 34.13-2.15 35.84-2.15 37.55-2.15 38.79-2.37 40.04-2.59 40.84-3.17 41.65-3.76 42.16-4.35 42.67-4.93 42.97-6.08 43.26-7.23 43.38-8.08 43.5-8.94 43.65-10.6L43.65-10.6Q43.99-14.79 44.04-24.17 44.09-33.54 44.19-36.23ZM67.87-13.43L51.17-14.55 50.63-16.75 66.89-17.87Q68.11-17.82 68.96-16.97 69.82-16.11 69.82-15.14L69.82-15.14Q69.82-14.5 69.33-14.01 68.84-13.53 67.87-13.43L67.87-13.43ZM71.97 0.15L71.97 0.15 71.87-2.25Q76.36-2.98 77.43-3.03L77.43-3.03Q77.48-4.69 77.48-8.01L77.48-8.01Q77.48-12.4 77.29-20.68 77.09-28.96 77.04-31.64L77.04-31.64 72.11-31.88 71.77-34.72Q73.77-34.67 77.97-34.67L77.97-34.67Q82.27-34.67 84.37-34.62L84.37-34.62 84.51-32.18Q83.68-31.84 82.17-31.76 80.66-31.69 80.27-31.64L80.27-31.64Q80.41-30.27 80.44-24.76 80.46-19.24 80.46-12.55 80.46-5.86 80.56-3.03L80.56-3.03Q81.34-2.88 83.54-2.69 85.73-2.49 86.27-2.39L86.27-2.39 86.17 0.15Q84.71 0.1 81.54 0.1L81.54 0.1Q79.88 0.1 76.6 0.12 73.33 0.15 71.97 0.15ZM89.25-1.27L89.25-1.27 89.49-35.64Q90.03-37.45 93.69-37.45L93.69-37.45Q97.06-37.45 99.89-36.55 102.72-35.64 104.65-33.52 106.58-31.4 106.58-28.42L106.58-28.42Q106.58-26.07 105.43-23.88 104.29-21.68 102.63-21.04L102.63-21.04Q105.75-20.61 107.66-17.29 109.56-13.96 109.56-9.42L109.56-9.42Q109.56-6.35 107.12-4.08 104.68-1.81 101.43-0.81 98.18 0.2 94.86 0.2L94.86 0.2Q90.81 0.2 89.25-1.27ZM93.25-18.36L93.25-18.36Q93.25-14.99 93.15-4.83L93.15-4.83Q94.62-3.17 96.91-3.17L96.91-3.17Q99.94-3.17 102.77-5.69 105.61-8.2 105.61-11.08L105.61-11.08Q105.61-14.65 103.21-16.65 100.82-18.65 97.06-18.65L97.06-18.65Q94.57-18.65 93.25-18.36ZM93.15-21.97L93.15-21.97 96.18-22.02Q99.31-22.02 100.99-23.85 102.68-25.68 102.68-28.22L102.68-28.22Q102.68-30.81 100.97-32.69 99.26-34.57 96.23-34.57L96.23-34.57Q94.86-34.57 93.01-33.98L93.01-33.98Q93.11-31.01 93.13-26.61 93.15-22.22 93.15-21.97ZM113.85-35.01L113.85-35.01 116.78-34.72Q117.52-27.25 118.2-3.96L118.2-3.96Q121.47-4.15 126.5-4.15 131.53-4.15 134.56-4.3L134.56-4.3Q134.85-3.47 134.97-1.95 135.09-0.44 135.24 0.29L135.24 0.29Q128.84-0.1 118.93-0.1L118.93-0.1 113.51-0.1Q113.76-7.32 113.78-19.43 113.81-31.54 113.85-35.01ZM155.84-2.2L155.84-2.2 156.33 0Q154.43 0 149.42 0.17 144.42 0.34 142.17 0.34L142.17 0.34Q138.56 0.34 137.24 0L137.24 0Q137.73-5.37 137.83-17.97 137.92-30.57 138.46-35.55L138.46-35.55Q140.12-35.4 147.28-35.3 154.43-35.21 156.63-34.86L156.63-34.86 157.16-32.67Q154.97-32.28 148.37-31.74 141.78-31.2 141.44-31.15L141.44-31.15Q141.49-30.03 141.66-26.56 141.83-23.1 141.88-20.85L141.88-20.85Q143.54-20.65 147.93-20.29 152.33-19.92 153.5-19.82L153.5-19.82 153.99-17.58Q143.69-16.65 141.93-16.6L141.93-16.6Q141.93-14.45 141.86-10.08 141.78-5.71 141.78-3.66L141.78-3.66Q152.96-2.64 155.84-2.2Z" opacity="1" transform="matrix(1,0,0,1,0,0)" fill="white" class="wordmark-text-0" id="SvgjsPath1238"></path></svg></g></svg></g></svg></g></svg></g><g transform="matrix(1,0,0,1,147.3988815642628,0)"><svg viewBox="0 0 100.7222368714744 148.20468936740085" height="148.20468936740085" width="100.7222368714744"><g><svg xmlns="http://www.w3.org/2000/svg" xmlns:xlink="http://www.w3.org/1999/xlink" version="1.1" x="0" y="0" viewBox="6.484999999999999 2 19.029240197723595 28" enable-background="new 0 0 32 32" xml:space="preserve" height="148.20468936740085" width="100.7222368714744" class="icon-icon-0" data-fill-palette-color="accent" id="SvgjsSvg1237"><path d="M24.485 2c0 8-18 4-18 20 0 6 2 8 2 8h2c0 0-3-2-3-8 0-4 9-8 9-8s-7.981 4.328-7.981 8.436C21.239 24.431 28.288 9.606 24.485 2z" fill="black"></path></svg></g></svg></g><g></g></svg></g><defs><mask></mask></defs></svg><rect width="360.82914930372834" height="247.2" fill="black" stroke="none" visibility="hidden"></rect></g></mask><linearGradient x1="0" x2="1" y1="0.5" y2="0.5" id="9d8494be-dbfa-4307-97f0-c7f59d16cb3d"><stop stop-color="#ffa62e" offset="0"></stop><stop stop-color="#f71b3d" offset="1"></stop></linearGradient><rect width="360.82914930372834" height="247.2" fill="#ffffff" mask="url(#2ed43082-7cf2-4ca2-bfe6-47ae36038f40)" data-fill-palette-color="primary"></rect><mask id="2d45449d-f0a0-45a2-b933-42d642653e43"><g id="SvgjsG1260"><svg viewBox="0 0 360.82914930372834 247.2" height="247.2" width="360.82914930372834"><g><svg viewBox="0 0 395.52 270.96631241867834" height="247.2" width="360.82914930372834"><g transform="matrix(1,0,0,1,0,171.65071770502198)"><svg viewBox="0 0 395.52 99.31559471365638" height="99.31559471365638" width="395.52"><g id="SvgjsG1259"><svg viewBox="0 0 395.52 99.31559471365638" height="99.31559471365638" width="395.52" id="SvgjsSvg1258"><g><svg viewBox="0 0 395.52 99.31559471365638" height="99.31559471365638" width="395.52"><g transform="matrix(1,0,0,1,0,0)"><svg width="395.52" viewBox="2 -37.45 155.16 38.96" height="99.31559471365638" data-palette-color="url(#9d8494be-dbfa-4307-97f0-c7f59d16cb3d)"></svg></g></svg></g></svg></g></svg></g><g transform="matrix(1,0,0,1,147.3988815642628,0)"><svg viewBox="0 0 100.7222368714744 148.20468936740085" height="148.20468936740085" width="100.7222368714744"><g><svg xmlns="http://www.w3.org/2000/svg" xmlns:xlink="http://www.w3.org/1999/xlink" version="1.1" x="0" y="0" viewBox="6.484999999999999 2 19.029240197723595 28" enable-background="new 0 0 32 32" xml:space="preserve" height="148.20468936740085" width="100.7222368714744" class="icon-icon-0" data-fill-palette-color="accent" id="SvgjsSvg1257"><path d="M24.485 2c0 8-18 4-18 20 0 6 2 8 2 8h2c0 0-3-2-3-8 0-4 9-8 9-8s-7.981 4.328-7.981 8.436C21.239 24.431 28.288 9.606 24.485 2z" fill="white"></path></svg></g></svg></g><g></g></svg></g><defs><mask></mask></defs><mask><g id="SvgjsG1256"><svg viewBox="0 0 360.82914930372834 247.2" height="247.2" width="360.82914930372834"><g><svg viewBox="0 0 395.52 270.96631241867834" height="247.2" width="360.82914930372834"><g transform="matrix(1,0,0,1,0,171.65071770502198)"><svg viewBox="0 0 395.52 99.31559471365638" height="99.31559471365638" width="395.52"><g id="SvgjsG1255"><svg viewBox="0 0 395.52 99.31559471365638" height="99.31559471365638" width="395.52" id="SvgjsSvg1254"><g><svg viewBox="0 0 395.52 99.31559471365638" height="99.31559471365638" width="395.52"><g transform="matrix(1,0,0,1,0,0)"><svg width="395.52" viewBox="2 -37.45 155.16 38.96" height="99.31559471365638" data-palette-color="url(#9d8494be-dbfa-4307-97f0-c7f59d16cb3d)"><path d="M17.04-35.11L17.04-35.11 19.87-35.69Q20.75-28.81 20.97-16.58 21.19-4.35 21.44-0.39L21.44-0.39Q21 1.12 19.73 1.12L19.73 1.12Q18.85 1.12 18.04 0.39 17.24-0.34 17.04-1.37L17.04-1.37Q17.09-3.13 17.09-7.23L17.09-7.23 17.09-16.85Q16.02-16.8 14.09-16.63 12.16-16.46 10.57-16.36 8.98-16.26 7.57-16.26L7.57-16.26Q6.3-16.26 5.71-16.31L5.71-16.31Q5.81-13.33 6.05-7.89 6.3-2.44 6.4-0.39L6.4-0.39Q5.96 1.12 4.69 1.12L4.69 1.12Q3.81 1.12 3 0.39 2.2-0.34 2-1.37L2-1.37Q2.15-5.57 2.27-17.68 2.39-29.79 2.73-35.69L2.73-35.69 4.93-35.21Q4.93-35.06 4.96-34.74 4.98-34.42 4.98-34.23L4.98-34.23Q5.62-22.22 5.71-19.19L5.71-19.19Q7.37-19.34 9.25-19.51 11.13-19.68 13.4-19.9 15.67-20.12 16.94-20.21L16.94-20.21Q16.99-20.21 16.99-20.7 16.99-21.19 17.02-24.66 17.04-28.13 17.04-35.11ZM44.19-36.23L44.19-36.23 47.07-35.99Q47.7-27 47.7-20.8L47.7-20.8Q47.7-16.31 47.46-10.55L47.46-10.55Q47.36-8.11 47.07-6.42 46.77-4.74 46.04-3.13 45.31-1.51 44.06-0.56 42.82 0.39 40.82 0.95 38.82 1.51 35.98 1.51L35.98 1.51Q33.93 1.51 32.37 1.15 30.81 0.78 29.76 0.2 28.71-0.39 27.98-1.34 27.24-2.29 26.83-3.32 26.41-4.35 26.19-5.76 25.97-7.18 25.88-8.45 25.78-9.72 25.68-11.43L25.68-11.43Q25.68-11.57 25.68-11.62L25.68-11.62Q25.44-17.58 25.44-21.73L25.44-21.73Q25.44-25.24 25.73-35.89L25.73-35.89 28.42-35.3Q28.51-30.81 28.95-22.49 29.39-14.16 29.54-10.64L29.54-10.64Q29.59-8.98 29.68-8.01 29.78-7.03 30.15-5.76 30.52-4.49 31.15-3.81 31.78-3.13 32.96-2.64 34.13-2.15 35.84-2.15 37.55-2.15 38.79-2.37 40.04-2.59 40.84-3.17 41.65-3.76 42.16-4.35 42.67-4.93 42.97-6.08 43.26-7.23 43.38-8.08 43.5-8.94 43.65-10.6L43.65-10.6Q43.99-14.79 44.04-24.17 44.09-33.54 44.19-36.23ZM67.87-13.43L51.17-14.55 50.63-16.75 66.89-17.87Q68.11-17.82 68.96-16.97 69.82-16.11 69.82-15.14L69.82-15.14Q69.82-14.5 69.33-14.01 68.84-13.53 67.87-13.43L67.87-13.43ZM71.97 0.15L71.97 0.15 71.87-2.25Q76.36-2.98 77.43-3.03L77.43-3.03Q77.48-4.69 77.48-8.01L77.48-8.01Q77.48-12.4 77.29-20.68 77.09-28.96 77.04-31.64L77.04-31.64 72.11-31.88 71.77-34.72Q73.77-34.67 77.97-34.67L77.97-34.67Q82.27-34.67 84.37-34.62L84.37-34.62 84.51-32.18Q83.68-31.84 82.17-31.76 80.66-31.69 80.27-31.64L80.27-31.64Q80.41-30.27 80.44-24.76 80.46-19.24 80.46-12.55 80.46-5.86 80.56-3.03L80.56-3.03Q81.34-2.88 83.54-2.69 85.73-2.49 86.27-2.39L86.27-2.39 86.17 0.15Q84.71 0.1 81.54 0.1L81.54 0.1Q79.88 0.1 76.6 0.12 73.33 0.15 71.97 0.15ZM89.25-1.27L89.25-1.27 89.49-35.64Q90.03-37.45 93.69-37.45L93.69-37.45Q97.06-37.45 99.89-36.55 102.72-35.64 104.65-33.52 106.58-31.4 106.58-28.42L106.58-28.42Q106.58-26.07 105.43-23.88 104.29-21.68 102.63-21.04L102.63-21.04Q105.75-20.61 107.66-17.29 109.56-13.96 109.56-9.42L109.56-9.42Q109.56-6.35 107.12-4.08 104.68-1.81 101.43-0.81 98.18 0.2 94.86 0.2L94.86 0.2Q90.81 0.2 89.25-1.27ZM93.25-18.36L93.25-18.36Q93.25-14.99 93.15-4.83L93.15-4.83Q94.62-3.17 96.91-3.17L96.91-3.17Q99.94-3.17 102.77-5.69 105.61-8.2 105.61-11.08L105.61-11.08Q105.61-14.65 103.21-16.65 100.82-18.65 97.06-18.65L97.06-18.65Q94.57-18.65 93.25-18.36ZM93.15-21.97L93.15-21.97 96.18-22.02Q99.31-22.02 100.99-23.85 102.68-25.68 102.68-28.22L102.68-28.22Q102.68-30.81 100.97-32.69 99.26-34.57 96.23-34.57L96.23-34.57Q94.86-34.57 93.01-33.98L93.01-33.98Q93.11-31.01 93.13-26.61 93.15-22.22 93.15-21.97ZM113.85-35.01L113.85-35.01 116.78-34.72Q117.52-27.25 118.2-3.96L118.2-3.96Q121.47-4.15 126.5-4.15 131.53-4.15 134.56-4.3L134.56-4.3Q134.85-3.47 134.97-1.95 135.09-0.44 135.24 0.29L135.24 0.29Q128.84-0.1 118.93-0.1L118.93-0.1 113.51-0.1Q113.76-7.32 113.78-19.43 113.81-31.54 113.85-35.01ZM155.84-2.2L155.84-2.2 156.33 0Q154.43 0 149.42 0.17 144.42 0.34 142.17 0.34L142.17 0.34Q138.56 0.34 137.24 0L137.24 0Q137.73-5.37 137.83-17.97 137.92-30.57 138.46-35.55L138.46-35.55Q140.12-35.4 147.28-35.3 154.43-35.21 156.63-34.86L156.63-34.86 157.16-32.67Q154.97-32.28 148.37-31.74 141.78-31.2 141.44-31.15L141.44-31.15Q141.49-30.03 141.66-26.56 141.83-23.1 141.88-20.85L141.88-20.85Q143.54-20.65 147.93-20.29 152.33-19.92 153.5-19.82L153.5-19.82 153.99-17.58Q143.69-16.65 141.93-16.6L141.93-16.6Q141.93-14.45 141.86-10.08 141.78-5.71 141.78-3.66L141.78-3.66Q152.96-2.64 155.84-2.2Z" opacity="1" transform="matrix(1,0,0,1,0,0)" fill="black" class="wordmark-text-0" id="SvgjsPath1253"></path></svg></g></svg></g></svg></g></svg></g><g transform="matrix(1,0,0,1,147.3988815642628,0)"><svg viewBox="0 0 100.7222368714744 148.20468936740085" height="148.20468936740085" width="100.7222368714744"><g><svg xmlns="http://www.w3.org/2000/svg" xmlns:xlink="http://www.w3.org/1999/xlink" version="1.1" x="0" y="0" viewBox="6.484999999999999 2 19.029240197723595 28" enable-background="new 0 0 32 32" xml:space="preserve" height="148.20468936740085" width="100.7222368714744" class="icon-icon-0" data-fill-palette-color="accent" id="SvgjsSvg1252"><path d="M24.485 2c0 8-18 4-18 20 0 6 2 8 2 8h2c0 0-3-2-3-8 0-4 9-8 9-8s-7.981 4.328-7.981 8.436C21.239 24.431 28.288 9.606 24.485 2z" fill="black"></path></svg></g></svg></g><g></g></svg></g><defs><mask></mask></defs></svg><rect width="360.82914930372834" height="247.2" fill="black" stroke="none" visibility="hidden"></rect></g></mask></svg><rect width="360.82914930372834" height="247.2" fill="black" stroke="none" visibility="hidden"></rect></g></mask><linearGradient x1="0" x2="1" y1="0.578" y2="0.595" id="8cb213ea-489a-499a-a6b5-ea7b1658fea2"><stop stop-color="#dede50" offset="0"></stop><stop stop-color="#559c49" offset="1"></stop></linearGradient><rect width="360.82914930372834" height="247.2" fill="#ffffff" mask="url(#2d45449d-f0a0-45a2-b933-42d642653e43)" data-fill-palette-color="accent"></rect></svg><rect width="360.82914930372834" height="247.2" fill="none" stroke="none" visibility="hidden"></rect></g></svg></g></svg>